<?xml version="1.0" encoding="UTF-8" standalone="no"?>
<!-- Created with Inkscape (http://www.inkscape.org/) -->

<svg
   width="210mm"
   height="297mm"
   viewBox="0 0 210 297"
   version="1.1"
   id="svg5"
   xml:space="preserve"
   inkscape:export-filename="bitmap.png"
   inkscape:export-xdpi="300"
   inkscape:export-ydpi="300"
   sodipodi:docname="logo.svg"
   inkscape:version="1.2 (dc2aedaf03, 2022-05-15)"
   xmlns:inkscape="http://www.inkscape.org/namespaces/inkscape"
   xmlns:sodipodi="http://sodipodi.sourceforge.net/DTD/sodipodi-0.dtd"
   xmlns="http://www.w3.org/2000/svg"
   xmlns:svg="http://www.w3.org/2000/svg"><sodipodi:namedview
     id="namedview7"
     pagecolor="#ffffff"
     bordercolor="#666666"
     borderopacity="1.0"
     inkscape:showpageshadow="2"
     inkscape:pageopacity="0.0"
     inkscape:pagecheckerboard="0"
     inkscape:deskcolor="#d1d1d1"
     inkscape:document-units="mm"
     showgrid="false"
     inkscape:zoom="10.35098"
     inkscape:cx="256.30424"
     inkscape:cy="178.72704"
     inkscape:window-width="2560"
     inkscape:window-height="1371"
     inkscape:window-x="0"
     inkscape:window-y="32"
     inkscape:window-maximized="1"
     inkscape:current-layer="layer1" /><defs
     id="defs2"><rect
       x="177.17377"
       y="192.3621"
       width="159.29423"
       height="47.336344"
       id="rect393" /></defs><g
     inkscape:label="Livello 1"
     inkscape:groupmode="layer"
     id="layer1"><path
       style="fill:#000000;stroke-width:0.104147"
       d="m 60.119941,57.66311 c -0.536968,-0.285032 -1.122793,-0.606714 -1.301839,-0.714849 -0.179044,-0.108134 -0.653599,-0.370073 -1.054565,-0.582086 -1.600806,-0.846437 -3.381924,-1.863543 -3.33883,-1.906637 0.04029,-0.04029 0.722808,0.31798 4.06786,2.135339 0.458247,0.248964 1.215647,0.646745 1.683112,0.883956 l 0.849936,0.431293 1.936659,-1.060079 c 1.065162,-0.583044 1.964274,-1.06008 1.998029,-1.06008 0.03376,0 0.185774,-0.08626 0.337819,-0.191696 0.152045,-0.105432 0.650054,-0.392362 1.106689,-0.63762 0.456634,-0.245258 0.932672,-0.513038 1.057862,-0.595066 0.133416,-0.08742 0.252825,-0.10836 0.288521,-0.0506 0.05985,0.09684 -0.358015,0.350873 -3.374319,2.051402 -0.830571,0.46826 -1.885061,1.06874 -2.343309,1.334399 -0.458248,0.265661 -0.85661,0.482468 -0.88525,0.481794 -0.02865,-6.38e-4 -0.49141,-0.234433 -1.028375,-0.519466 z m -0.53383,-0.798333 c -0.773292,-0.435182 -2.190994,-1.232623 -3.150448,-1.772091 -1.736224,-0.976218 -2.293778,-1.353511 -1.138003,-0.770077 0.333553,0.168377 1.751255,0.924352 3.150448,1.679945 l 2.543989,1.373805 0.833175,-0.445528 c 0.458248,-0.24504 1.877111,-1.023774 3.153031,-1.730519 2.233702,-1.237271 2.526577,-1.377538 2.519951,-1.206882 -0.0038,0.09696 -6.130822,3.610873 -6.348382,3.640849 -0.08678,0.01196 -0.79047,-0.33432 -1.563761,-0.769502 z m -0.521744,-0.850254 c -3.483737,-1.938254 -4.116654,-2.304207 -3.988015,-2.305877 0.06863,-8.81e-4 1.19342,0.577511 2.499529,1.285339 3.335381,1.807564 3.461689,1.868434 3.614287,1.741788 0.07125,-0.05913 0.501059,-0.301987 0.955132,-0.539677 0.454077,-0.237691 1.43485,-0.770036 2.179501,-1.182988 3.015723,-1.672393 2.864045,-1.596938 2.864045,-1.424762 0,0.07486 -2.481534,1.557318 -3.749294,2.239806 -0.200484,0.107928 -0.793381,0.448119 -1.317553,0.75598 -0.524169,0.307861 -0.969852,0.559747 -0.990407,0.559747 -0.02057,0 -0.950806,-0.508211 -2.067225,-1.129356 z m 1.615288,0.366142 c -0.229123,-0.132279 -0.838383,-0.476802 -1.353912,-0.765605 -0.515528,-0.288804 -1.629685,-0.913284 -2.475903,-1.387733 -0.846219,-0.47445 -1.51678,-0.884437 -1.490135,-0.911081 0.02665,-0.02664 0.719005,0.315512 1.53858,0.760348 4.314561,2.341791 4.149981,2.261949 4.336587,2.103794 0.251564,-0.213208 5.380663,-2.994098 5.522343,-2.994098 0.06555,0 0.119189,0.04687 0.119189,0.104147 0,0.05728 -0.03744,0.104147 -0.08319,0.104147 -0.04576,0 -1.340244,0.726426 -2.876635,1.61428 -1.536391,0.887853 -2.799491,1.613836 -2.806886,1.613294 -0.0074,-5.16e-4 -0.200914,-0.109214 -0.430036,-0.241493 z m -2.269651,-1.824157 c -1.42015,-0.792886 -2.638671,-1.502143 -2.707823,-1.576128 -0.108064,-0.115616 2.397469,1.1475 2.686239,1.354215 0.487332,0.348854 2.640801,1.335985 2.774245,1.284778 0.121592,-0.04666 -0.01115,-0.112413 -0.345386,-0.284225 -1.066509,-0.548223 -4.869037,-2.711587 -4.830967,-2.749657 0.02287,-0.02287 1.156148,0.549613 2.518395,1.272186 1.364184,0.723601 2.545188,1.287531 2.629024,1.25536 0.09075,-0.03482 -0.827418,-0.601042 -2.273777,-1.402204 -1.334294,-0.739086 -2.47833,-1.399651 -2.542305,-1.467922 -0.175138,-0.186898 -0.08853,-0.144243 2.41337,1.188646 1.628462,0.867564 2.355584,1.204396 2.445523,1.132864 0.129024,-0.10262 1.772371,-1.006876 3.408627,-1.87561 0.486887,-0.258502 0.929774,-0.510084 0.984191,-0.559071 0.05442,-0.04899 0.195015,-0.08758 0.312439,-0.08575 0.206897,0.0032 0.207449,0.0079 0.01789,0.151433 -0.107591,0.08147 -1.068346,0.644997 -2.135016,1.252289 -1.066669,0.607293 -2.430797,1.490356 -2.573999,1.60533 -0.284493,0.228413 0.54511,-0.199669 3.002441,-1.549286 0.878053,-0.482244 1.999017,-1.140596 2.033644,-1.105972 0.103067,0.103069 -0.07356,0.226398 -1.435639,1.002404 -1.996335,1.137357 -3.584852,2.135241 -3.584852,2.182808 0,0.06085 0.75238,-0.394281 3.01439,-1.623186 2.176201,-1.182287 2.343306,-1.261204 2.343306,-1.106629 0,0.05817 -0.456944,0.362817 -1.015433,0.677 -0.558487,0.314182 -1.757227,0.99803 -2.663863,1.519662 -0.906637,0.521633 -1.703363,0.948391 -1.770503,0.948351 -0.06714,-3.9e-5 -1.28401,-0.648796 -2.704159,-1.441681 z m 0.447077,-1.39289 c -2.383963,-1.333297 -2.34877,-1.312213 -2.282556,-1.367422 0.02387,-0.0199 1.023074,0.487859 2.220461,1.128353 l 2.177066,1.164534 1.832596,-0.981192 c 1.007926,-0.539656 2.036442,-1.09899 2.285584,-1.242964 0.252311,-0.145804 0.492611,-0.222151 0.542425,-0.172338 0.07685,0.07685 -0.76727,0.587773 -3.956781,2.394925 l -0.579634,0.328415 z m 0.260368,-0.405983 C 58.086393,52.1806 57.125637,51.640912 56.982434,51.55833 l -0.260367,-0.15015 0.259953,0.07103 c 0.142974,0.03907 1.075834,0.50944 2.07302,1.045276 0.997187,0.535835 1.858668,0.974247 1.9144,0.974247 0.05573,0 0.646022,-0.299274 1.311759,-0.665053 2.460928,-1.352124 3.018208,-1.630227 3.07679,-1.535438 0.03298,0.05336 -0.490627,0.413602 -1.163569,0.800536 -0.67294,0.386934 -1.614581,0.930514 -2.092533,1.207956 -0.477952,0.277442 -0.923182,0.503454 -0.989398,0.502249 -0.06622,-0.0012 -0.963985,-0.474311 -1.99504,-1.051348 z m -0.08109,-0.581775 c -1.075654,-0.605698 -1.935337,-1.121666 -1.910408,-1.146596 0.02493,-0.02493 0.762111,0.333037 1.638179,0.795482 0.87607,0.462445 1.634781,0.821072 1.676079,0.840809 0.05258,0.02513 0.457242,0.230742 0.59747,0.248085 0.178248,0.02205 0.217073,-0.08642 0.802443,-0.388393 1.755552,-0.905645 3.036816,-1.630192 3.148951,-1.630192 0.243911,0 0.09985,0.165587 -0.353127,0.40589 -0.258475,0.137122 -1.137214,0.640322 -1.952757,1.118223 -0.81554,0.477902 -1.529665,0.866448 -1.586947,0.863437 -0.05728,-0.003 -0.984227,-0.501047 -2.059883,-1.106745 z m 0.185236,-0.448881 c -1.031055,-0.571407 -1.812712,-1.039213 -1.737015,-1.03957 0.0757,-3.64e-4 0.902772,0.399056 1.837943,0.887583 l 1.700312,0.888232 0.609513,-0.351545 c 0.786785,-0.453788 3.027723,-1.633212 3.10315,-1.633212 0.195155,0 -0.0065,0.236028 -0.384658,0.450239 -0.243447,0.1379 -1.069862,0.608537 -1.836484,1.045861 -0.766623,0.437324 -1.399318,0.79428 -1.405986,0.793234 -0.0067,-10e-4 -0.855717,-0.469415 -1.886775,-1.040822 z m 0.07325,-0.49133 c -0.876208,-0.487474 -1.570519,-0.908903 -1.542913,-0.936509 0.02761,-0.02761 0.762134,0.320621 1.632281,0.773839 l 1.582089,0.824032 1.627179,-0.863787 c 1.549731,-0.822675 1.891435,-0.965758 1.88446,-0.789088 -0.0049,0.123811 -3.217753,1.90195 -3.413639,1.889256 -0.09699,-0.0063 -0.893249,-0.410269 -1.769457,-0.897743 z m -18.24691,-4.506477 h 9.537004 9.537004 l -0.241879,0.300257 c -0.133033,0.165141 -1.062038,1.335673 -2.064453,2.601183 l -1.822574,2.300926 -7.472551,0.0025 -7.472551,0.0025 z m 23.589308,3.261915 c -0.801932,-1.007001 -1.729938,-2.17632 -2.062237,-2.598486 l -0.604175,-0.767576 h 9.529339 9.529338 l 0.0071,2.603677 0.0071,2.603677 -7.474247,-0.0052 -7.474246,-0.0052 -1.45806,-1.830911 z m -5.021633,0.872591 c -1.884143,-1.03101 -1.968058,-1.192743 -0.147807,-0.284877 l 1.495971,0.74613 1.263926,-0.646706 c 0.695159,-0.355689 1.356369,-0.710175 1.469358,-0.787748 0.240016,-0.164788 0.504203,-0.186683 0.454164,-0.03764 -0.04134,0.12312 -2.88508,1.772842 -3.047029,1.767651 -0.06165,-0.002 -0.731515,-0.342542 -1.488583,-0.756812 z m 0.04901,-0.512807 c -0.73011,-0.407603 -1.309593,-0.758977 -1.287739,-0.780831 0.02186,-0.02186 0.61922,0.247029 1.327476,0.59752 l 1.287741,0.637256 1.386223,-0.735984 c 0.762424,-0.404791 1.406834,-0.735984 1.432021,-0.735984 0.02519,0 0.04492,0.05858 0.04385,0.130184 -0.0018,0.117996 -2.461527,1.560312 -2.743331,1.608589 -0.06532,0.01119 -0.716127,-0.313146 -1.446242,-0.72075 z m 0.14295,-0.47617 c -0.699319,-0.382371 -1.231294,-0.708619 -1.182167,-0.724994 0.04913,-0.01637 0.597988,0.228681 1.219689,0.544571 l 1.130367,0.574346 1.172036,-0.624109 c 0.644616,-0.343259 1.222472,-0.624108 1.284119,-0.624108 0.180256,0 0.128842,0.208429 -0.07017,0.28447 -0.100242,0.0383 -0.516565,0.267128 -0.92516,0.508502 -1.455022,0.859541 -1.18056,0.853139 -2.628713,0.06132 z m 0.76794,-0.111848 c -0.171844,-0.105252 -0.632327,-0.366499 -1.023299,-0.580549 -1.05661,-0.578474 -0.766628,-0.564541 0.395811,0.01902 l 1.008556,0.506309 1.093546,-0.560984 c 0.601453,-0.308541 1.121848,-0.532685 1.156436,-0.498097 0.03459,0.03459 0.01914,0.105256 -0.03432,0.15704 -0.213492,0.206791 -1.94742,1.152028 -2.11025,1.150386 -0.09572,-9.72e-4 -0.314642,-0.08787 -0.486483,-0.193123 z m -0.489563,-0.819302 c -0.498383,-0.268878 -0.883971,-0.511049 -0.856863,-0.538156 0.0271,-0.02711 0.420446,0.131676 0.874085,0.352851 l 0.8248,0.402136 0.897146,-0.434502 c 0.903484,-0.437572 1.094276,-0.499784 1.093015,-0.356392 -6.08e-4,0.08682 -1.693258,1.068838 -1.835886,1.065221 -0.04958,-0.0012 -0.497915,-0.222279 -0.996297,-0.491158 z m 0.146115,-0.461097 C 59.814041,48.249173 59.4903,48.040033 59.512632,48.0177 c 0.02233,-0.02233 0.354018,0.101502 0.737078,0.275189 l 0.696472,0.315795 0.777002,-0.373724 c 0.427355,-0.205548 0.827255,-0.342668 0.888671,-0.304711 0.103039,0.06368 -1.351533,0.992061 -1.5373,0.981182 -0.04535,-0.0026 -0.424474,-0.195695 -0.842493,-0.428977 z m 0.2393,-0.422623 c -0.697034,-0.350379 -0.731637,-0.373371 -0.663886,-0.441122 0.02628,-0.02628 0.293749,0.06617 0.594373,0.205452 l 0.54659,0.253239 0.640728,-0.310374 c 0.749824,-0.363219 1.047314,-0.258316 0.373183,0.131594 -0.878131,0.507903 -0.814892,0.501065 -1.490988,0.161211 z m 0,-0.518736 c -0.477454,-0.252535 -0.363876,-0.368445 0.149515,-0.152581 0.304096,0.127863 0.386544,0.122369 0.742181,-0.04946 0.772765,-0.373359 0.958966,-0.162963 0.198931,0.224778 -0.498389,0.254258 -0.56973,0.252771 -1.090627,-0.02274 z m 0.225124,-0.459729 c -0.343059,-0.185915 -0.316449,-0.294382 0.03988,-0.162566 0.161007,0.05956 0.333271,0.04294 0.50982,-0.04919 0.315238,-0.16451 0.52701,-0.180166 0.52701,-0.03896 0,0.101438 -0.540532,0.422968 -0.697821,0.415093 -0.0458,-0.0023 -0.216305,-0.07626 -0.378892,-0.164371 z m 0.165428,-0.421169 c -0.0716,-0.02889 -0.130184,-0.100505 -0.130184,-0.159141 0,-0.05864 0.06459,-0.08183 0.14353,-0.05153 0.07894,0.03029 0.192022,0.0066 0.251293,-0.05269 0.05927,-0.05927 0.165814,-0.07189 0.236763,-0.02804 0.09612,0.05941 0.08009,0.115486 -0.06291,0.220049 -0.203736,0.148977 -0.233934,0.15389 -0.438494,0.07135 z m 0.130184,-0.555908 c -0.0354,-0.05728 -0.01473,-0.104147 0.04592,-0.104147 0.06066,0 0.110294,0.04687 0.110294,0.104147 0,0.05728 -0.02066,0.104147 -0.04593,0.104147 -0.02525,0 -0.07489,-0.04687 -0.110294,-0.104147 z"
       id="path241"
       sodipodi:nodetypes="sssssscsssssssscssssscsssssscssssssssssssssssssscssssssssssssssssssssssssssssssssscsssscssscssssssscssssssssssssscscsssscsssscsssscccsscccccscccccccccsscsssssssscsscssssscsssssssscsscsssscscsccsssscsscsssscssssssssssssscsssssssssssss" /><text
       xml:space="preserve"
       transform="scale(0.26458333)"
       id="text391"
       style="font-style:normal;font-weight:normal;font-size:15px;line-height:25px;font-family:Sans;letter-spacing:0px;word-spacing:0px;white-space:pre;shape-inside:url(#rect393);display:inline;fill:#ffffff;fill-opacity:1;stroke:none;stroke-width:1px;stroke-linecap:butt;stroke-linejoin:miter;stroke-opacity:1" /><text
       xml:space="preserve"
       style="font-style:normal;font-weight:normal;font-size:3.96875px;line-height:6.61458px;font-family:Sans;letter-spacing:0px;word-spacing:0px;fill:#000000;fill-opacity:1;stroke:none;stroke-width:0.264583px;stroke-linecap:butt;stroke-linejoin:miter;stroke-opacity:1"
       x="59.205338"
       y="55.708794"
       id="text399"><tspan
         sodipodi:role="line"
         id="tspan397"
         style="stroke-width:0.264583px"
         x="59.205338"
         y="55.708794" /></text><text
       xml:space="preserve"
       style="font-style:normal;font-weight:normal;font-size:4.95387px;line-height:8.25647px;font-family:Sans;letter-spacing:0px;word-spacing:0px;fill:#ffffff;fill-opacity:1;stroke:none;stroke-width:0.330257px;stroke-linecap:butt;stroke-linejoin:miter;stroke-opacity:1"
       x="45.881489"
       y="50.725525"
       id="text403"><tspan
         sodipodi:role="line"
         id="tspan401"
         style="font-style:normal;font-variant:normal;font-weight:bold;font-stretch:normal;font-family:'Nimbus Sans';-inkscape-font-specification:'Nimbus Sans Bold';fill:#ffffff;stroke-width:0.330257px"
         x="45.881489"
         y="50.725525">Big</tspan></text><text
       xml:space="preserve"
       style="font-style:normal;font-weight:normal;font-size:4.94184px;line-height:8.23639px;font-family:Sans;letter-spacing:0px;word-spacing:0px;fill:#ffffff;fill-opacity:1;stroke:none;stroke-width:0.329455px;stroke-linecap:butt;stroke-linejoin:miter;stroke-opacity:1"
       x="67.04364"
       y="50.696987"
       id="text407"><tspan
         sodipodi:role="line"
         id="tspan405"
         style="font-style:normal;font-variant:normal;font-weight:bold;font-stretch:normal;font-family:Sans;-inkscape-font-specification:'Sans Bold';fill:#ffffff;stroke-width:0.329455px"
         x="67.04364"
         y="50.696987">ROM</tspan></text><path
       style="fill:#ffffff;stroke:#000000;stroke-width:0.0125351"
       d="m 41.064174,49.333015 v -2.591758 h 9.513116 c 9.4388,0 9.512881,3.21e-4 9.482982,0.04298 -0.01657,0.02364 -0.539274,0.683384 -1.161556,1.466101 -0.622283,0.782715 -1.531595,1.929249 -2.020694,2.547852 l -0.88927,1.124732 -7.46229,9.24e-4 -7.462288,9.24e-4 z m 11.629969,2.426106 c 0.435555,-0.119339 0.701439,-0.396705 0.757088,-0.789783 0.01249,-0.08821 0.02195,-0.745939 0.0222,-1.542975 l 4.02e-4,-1.389227 H 53.13339 52.792947 l -2.41e-4,0.192185 -2.41e-4,0.192185 -0.0592,-0.07687 c -0.27682,-0.359458 -0.633854,-0.440348 -1.042438,-0.236177 -0.277169,0.138504 -0.527178,0.477571 -0.627603,0.851171 -0.0543,0.201988 -0.05288,0.786155 0.0024,0.988383 0.179737,0.657558 0.721357,1.027212 1.267589,0.865127 0.138384,-0.04106 0.210275,-0.08649 0.357729,-0.226063 l 0.106648,-0.100945 -0.0096,0.241605 c -0.01089,0.274386 -0.04728,0.373191 -0.180544,0.490195 -0.149005,0.130827 -0.435147,0.168812 -0.606026,0.08045 -0.06887,-0.03561 -0.165398,-0.143714 -0.185839,-0.208117 -0.01327,-0.04182 -0.03293,-0.04405 -0.388332,-0.04405 h -0.374353 l 0.01458,0.08237 c 0.02393,0.135168 0.118721,0.306587 0.21678,0.392003 0.127182,0.110786 0.377289,0.226397 0.568603,0.262835 0.204124,0.03888 0.658587,0.02575 0.841248,-0.02429 z m -4.280938,-1.07743 c 0.408392,-0.113415 0.688089,-0.422709 0.759652,-0.840034 0.03184,-0.185672 0.0061,-0.384797 -0.07021,-0.542347 -0.06133,-0.126698 -0.229827,-0.311569 -0.371674,-0.4078 -0.06052,-0.04106 -0.11029,-0.08171 -0.110602,-0.09035 -3.21e-4,-0.0086 0.02141,-0.02746 0.04827,-0.04184 0.09471,-0.05068 0.286094,-0.251178 0.343397,-0.359733 0.05149,-0.09754 0.058,-0.134509 0.05801,-0.329506 1.6e-5,-0.20158 -0.0058,-0.231847 -0.0703,-0.368085 -0.0874,-0.184511 -0.253585,-0.363032 -0.421016,-0.452271 -0.238597,-0.127172 -0.31148,-0.134398 -1.359139,-0.134756 l -0.949945,-3.22e-4 v 1.813619 1.813619 l 0.993874,-0.0085 c 0.905731,-0.0077 1.00769,-0.0123 1.149675,-0.05173 z m 2.073549,-1.293765 v -1.35079 H 50.13533 49.783905 v 1.35079 1.350789 h 0.351425 0.351424 z m 0,-1.954802 V 47.114645 H 50.13533 49.783905 v 0.318479 0.318479 h 0.351425 0.351424 z"
       id="path574" /><path
       style="fill:#ffffff;stroke:#000000;stroke-width:0.0125351"
       d="m 65.548621,51.117595 c -0.712729,-0.894034 -2.812925,-3.539471 -3.230229,-4.068842 l -0.320314,-0.406335 9.502013,-0.0055 c 5.226107,-0.003 9.504002,-0.003 9.506433,0 0.0024,0.003 0.01132,1.169336 0.01976,2.591784 l 0.01534,2.586268 h -7.468535 -7.468536 z m 7.022995,-0.380558 c 0.729128,-0.08675 1.19294,-0.532344 1.340755,-1.288102 0.104667,-0.535143 0.03322,-1.163244 -0.178047,-1.565288 -0.188393,-0.358513 -0.477481,-0.591436 -0.877947,-0.707373 -0.154597,-0.04476 -0.222194,-0.05065 -0.581276,-0.05065 -0.467086,0 -0.577871,0.02121 -0.877287,0.167996 -0.524622,0.257182 -0.813868,0.833763 -0.813728,1.622075 2.41e-4,1.171505 0.583904,1.819999 1.658069,1.842141 0.07248,0.0015 0.220739,-0.0079 0.329461,-0.0208 z m -4.32111,-0.707513 0.0058,-0.676245 0.189991,0.0063 0.189991,0.0063 0.418853,0.675395 0.418852,0.675395 h 0.424979 c 0.233739,0 0.421684,-0.0078 0.417657,-0.01729 -0.004,-0.0095 -0.230397,-0.348031 -0.503047,-0.752269 -0.27265,-0.404238 -0.502449,-0.74639 -0.510665,-0.760337 -0.0092,-0.01563 0.02932,-0.05035 0.100373,-0.09048 0.196919,-0.111213 0.336573,-0.254443 0.427525,-0.438473 0.07616,-0.15409 0.08292,-0.183615 0.09079,-0.39613 0.02148,-0.580408 -0.235899,-0.905345 -0.831301,-1.049485 -0.136952,-0.03315 -0.28603,-0.04139 -0.884053,-0.04882 l -0.719324,-0.0089 v 1.781636 1.781636 l 0.378881,-0.006 0.37888,-0.006 z m 7.096451,-0.662791 c -0.0059,-0.996604 -0.0017,-1.331534 0.01607,-1.279407 0.01321,0.03884 0.20038,0.646581 0.415925,1.350543 l 0.391899,1.279931 0.35079,-0.006 0.350788,-0.006 0.452051,-1.376697 c 0.248628,-0.757182 0.453141,-1.374921 0.454472,-1.372753 0.0013,0.0022 -0.0052,0.162084 -0.01447,0.355368 -0.0093,0.193283 -0.01767,0.813494 -0.01861,1.378244 l -0.0017,1.02682 h 0.362407 0.362407 V 48.937669 47.15858 l -0.521647,4.02e-4 -0.521646,4.02e-4 -0.438163,1.339857 c -0.24099,0.736922 -0.444691,1.327306 -0.45267,1.311964 -0.008,-0.01534 -0.196275,-0.618307 -0.418435,-1.339924 l -0.403928,-1.312031 -0.521647,-3.21e-4 -0.521647,-3.22e-4 v 1.779089 1.779089 h 0.342865 0.342864 z"
       id="path576" /><path
       style="fill:#ffffff;stroke:#000000;stroke-width:0.0125351"
       d="m 72.019937,50.082236 c -0.302329,-0.07801 -0.507791,-0.327914 -0.590471,-0.718198 -0.04206,-0.198539 -0.04206,-0.676177 0,-0.874716 0.05923,-0.279579 0.195615,-0.511614 0.362727,-0.617106 0.254855,-0.160885 0.71096,-0.160885 0.965817,0 0.250201,0.157944 0.395654,0.545593 0.395654,1.054464 0,0.564884 -0.169131,0.953176 -0.479666,1.101229 -0.106345,0.0507 -0.157733,0.0602 -0.354969,0.06564 -0.126843,0.0035 -0.261434,-0.0016 -0.299092,-0.01131 z"
       id="path578" /><path
       style="fill:#ffffff;stroke:#000000;stroke-width:0.0125351"
       d="m 68.255678,48.256776 v -0.466548 l 0.270675,0.009 c 0.246327,0.0082 0.282386,0.01486 0.400844,0.07404 0.105131,0.05252 0.139675,0.08387 0.179588,0.163025 0.08804,0.174595 0.04964,0.419389 -0.08526,0.543399 -0.101467,0.09328 -0.212785,0.12324 -0.496789,0.133709 l -0.26906,0.0099 z"
       id="path580" /><path
       style="fill:#ffffff;stroke:#000000;stroke-width:0.0125351"
       d="m 52.103854,50.223238 c -0.27355,-0.09751 -0.431486,-0.524276 -0.365469,-0.987557 0.05633,-0.395277 0.245939,-0.632548 0.505494,-0.632548 0.21054,0 0.412914,0.184449 0.495944,0.452016 0.04726,0.152295 0.06464,0.479248 0.03345,0.629291 -0.05847,0.281307 -0.207811,0.47972 -0.405188,0.538335 -0.132713,0.03941 -0.154855,0.03945 -0.264232,4.82e-4 z"
       id="path582" /><path
       style="fill:#ffffff;stroke:#000000;stroke-width:0.0125351"
       d="m 47.038397,49.640835 v -0.464353 l 0.543611,0.0069 c 0.518705,0.0066 0.548404,0.0092 0.64825,0.05841 0.150084,0.07391 0.2203,0.199974 0.2203,0.39553 0,0.214122 -0.07285,0.330309 -0.259347,0.413603 -0.07434,0.0332 -0.167942,0.04025 -0.620185,0.04669 l -0.532629,0.0076 z"
       id="path584" /><path
       style="fill:#ffffff;stroke:#000000;stroke-width:0.0125351"
       d="m 47.038397,48.146956 v -0.395353 l 0.477719,1.6e-4 c 0.280751,7.2e-5 0.513737,0.01012 0.565079,0.02438 0.131389,0.03648 0.24542,0.162003 0.264847,0.291543 0.01992,0.132864 -0.01736,0.264001 -0.09799,0.344627 -0.106531,0.106531 -0.242543,0.130038 -0.752397,0.130038 h -0.457259 z"
       id="path586" /><path
       style="fill:#ffffff;stroke:#000000;stroke-width:0.00626754"
       d="m 61.089904,55.041082 c -0.09991,-0.08937 -0.579405,-0.39297 -1.092712,-0.691867 -0.332019,-0.193335 -0.559822,-0.32245 -1.109185,-0.628671 -1.242376,-0.692514 -2.009635,-1.130911 -2.399574,-1.37107 -0.123573,-0.07611 -0.231598,-0.163815 -0.21823,-0.177183 0.02211,-0.02211 0.361821,0.150042 1.717278,0.870283 1.215884,0.646077 1.429726,0.758343 1.877927,0.9859 0.633785,0.321781 1.012253,0.491836 1.194696,0.536806 0.08278,0.0204 0.09934,0.01773 0.165361,-0.02667 0.189962,-0.127769 1.601797,-0.904826 3.032755,-1.669193 0.826252,-0.441354 1.210598,-0.656597 1.323334,-0.7411 0.06714,-0.05033 0.175763,-0.07676 0.315128,-0.07669 0.06762,3.4e-5 0.12656,0.0037 0.130984,0.0081 0.01129,0.01129 -0.04438,0.06743 -0.122142,0.123173 -0.141756,0.101613 -0.658433,0.406635 -1.823017,1.076222 -0.895144,0.514672 -1.496284,0.877461 -2.201897,1.328852 -0.280468,0.179419 -0.688426,0.452225 -0.696992,0.466085 -0.02108,0.0341 -0.04475,0.03082 -0.09371,-0.01298 z"
       id="path661" /><path
       style="fill:#ffffff;stroke:#000000;stroke-width:0.00626754"
       d="m 60.496875,54.075499 c -0.323147,-0.181349 -1.13115,-0.633923 -1.795562,-1.005718 -1.660639,-0.929265 -1.96543,-1.103634 -2.07893,-1.189341 -0.05333,-0.04028 -0.07266,-0.07647 -0.04084,-0.07647 0.02881,0 0.408649,0.183587 0.845852,0.408828 0.559781,0.28839 1.000106,0.521408 2.362432,1.250189 1.04364,0.558299 1.17689,0.62675 1.201816,0.617372 0.07648,-0.02877 3.275981,-1.750778 3.920005,-2.109785 0.37608,-0.209643 0.556626,-0.287407 0.667283,-0.287407 0.228363,0 -0.377158,0.38676 -2.539719,1.622175 -1.016741,0.580838 -1.937043,1.101368 -1.945916,1.100626 -0.0049,-4.02e-4 -0.273277,-0.14912 -0.596423,-0.330471 z"
       id="path663" /><path
       style="fill:#ffffff;stroke:#000000;stroke-width:0.00626754"
       d="m 60.776351,53.644962 c -0.514157,-0.258611 -0.987495,-0.51695 -2.442936,-1.333302 -1.113951,-0.624813 -1.55017,-0.872052 -1.545989,-0.876233 0.0019,-0.0019 0.05383,0.01065 0.115455,0.02782 0.150329,0.0419 0.286106,0.103894 0.842995,0.384889 0.470577,0.237443 0.678703,0.346171 1.449628,0.757312 0.812953,0.433555 1.51933,0.795866 1.688525,0.866072 l 0.08515,0.03533 0.07409,-0.02938 c 0.190832,-0.07568 0.595348,-0.287742 1.721395,-0.902399 2.002545,-1.093097 2.532251,-1.354787 2.581389,-1.275281 0.02505,0.04053 -0.334865,0.302697 -0.810068,0.590062 -0.171997,0.10401 -1.79388,1.042669 -2.512608,1.454164 -0.354831,0.203152 -0.828587,0.445207 -0.89011,0.454782 -0.03414,0.0053 -0.0786,-0.01385 -0.356916,-0.153836 z"
       id="path665" /><path
       style="fill:#ffffff;stroke:#000000;stroke-width:0.00626754"
       d="m 60.833716,53.150916 c -1.074202,-0.5499 -3.739043,-2.076872 -3.667678,-2.101605 0.03284,-0.01138 0.742916,0.333655 1.45291,0.705991 0.809721,0.424634 1.945078,0.987441 2.207303,1.09418 0.265319,0.107998 0.276462,0.106229 0.620216,-0.09848 0.09645,-0.05743 0.331189,-0.18586 0.521647,-0.285393 0.668152,-0.349173 1.044139,-0.547403 1.730022,-0.912112 0.987262,-0.524964 1.220051,-0.641478 1.293876,-0.6476 0.119639,-0.0099 0.138153,0.03698 0.04868,0.123317 -0.07096,0.06847 -0.172786,0.135964 -0.368593,0.244322 -0.445749,0.246673 -1.049101,0.591678 -1.797612,1.027901 -1.030433,0.600523 -1.711315,0.973691 -1.7772,0.974022 -0.01104,5.5e-5 -0.129646,-0.05599 -0.263568,-0.124547 z"
       id="path667" /><path
       style="fill:#ffffff;stroke:#000000;stroke-width:0.00626754"
       d="m 61.062449,52.737955 c -0.01812,-0.0108 -0.304752,-0.169327 -0.636957,-0.352285 -1.382884,-0.761605 -1.990295,-1.10327 -2.464173,-1.386083 -0.312396,-0.186439 -0.490625,-0.3048 -0.458972,-0.3048 0.01346,0 0.235354,0.09719 0.421825,0.184763 0.341994,0.160607 1.231566,0.613391 2.189646,1.114511 0.492992,0.257858 0.901713,0.468832 0.908268,0.468832 0.0066,0 0.186343,-0.100397 0.399529,-0.223105 0.579955,-0.333817 1.175372,-0.658719 2.095317,-1.14336 0.541573,-0.285308 1.193154,-0.6103 1.223598,-0.6103 0.06205,0 0.07633,0.02693 0.04569,0.08619 -0.02592,0.05011 -0.171323,0.180055 -0.287162,0.256618 -0.09558,0.06318 -1.407556,0.813707 -2.78318,1.592157 -0.579256,0.327794 -0.598635,0.338503 -0.610558,0.337411 -0.0055,-4.83e-4 -0.02475,-0.0097 -0.04287,-0.02054 z"
       id="path669" /><path
       style="fill:#ffffff;stroke:#000000;stroke-width:0.00626754"
       d="m 60.947137,52.087259 c -0.131433,-0.05504 -0.768011,-0.37715 -1.110002,-0.561669 -0.763019,-0.411681 -1.555861,-0.868011 -1.911328,-1.100088 -0.203054,-0.132569 -0.202813,-0.146465 0.0011,-0.06071 0.342514,0.14407 0.864792,0.405418 2.192605,1.097183 l 0.847088,0.441316 0.866257,-0.460012 c 1.216503,-0.646006 1.414595,-0.749683 1.793942,-0.938912 0.390497,-0.194791 0.574514,-0.275441 0.699525,-0.306588 0.08477,-0.02112 0.09166,-0.02135 0.118057,-0.0041 0.0466,0.03053 0.03556,0.05607 -0.05235,0.121078 -0.433623,0.320679 -2.702245,1.575345 -3.216101,1.778671 -0.09359,0.03703 -0.127713,0.0361 -0.22875,-0.0062 z"
       id="path671" /><path
       style="fill:#ffffff;stroke:#000000;stroke-width:0.00626754"
       d="m 60.991066,51.57036 c -0.155477,-0.07055 -0.779179,-0.390036 -1.098203,-0.562547 -1.030223,-0.55709 -1.783278,-1.00096 -1.72007,-1.013854 0.05228,-0.01066 0.426283,0.164209 1.692615,0.791417 0.597972,0.296173 1.092741,0.53862 1.099486,0.538772 0.0067,1.61e-4 0.365036,-0.180409 0.796197,-0.401244 1.15779,-0.593006 1.620795,-0.838206 1.917156,-1.015296 0.0857,-0.05121 0.191192,-0.105077 0.23442,-0.119703 0.170283,-0.05761 0.290264,-0.01502 0.217672,0.07726 -0.07837,0.09963 -1.307731,0.842858 -2.288166,1.38334 -0.275691,0.15198 -0.675681,0.354016 -0.719323,0.363331 -0.01838,0.0039 -0.06193,-0.0098 -0.131784,-0.04148 z"
       id="path673" /><path
       style="fill:#ffffff;stroke:#000000;stroke-width:0.00626754"
       d="m 61.040485,51.047381 c -0.148719,-0.05417 -0.670909,-0.315984 -1.114676,-0.558863 -0.63941,-0.349958 -1.406356,-0.80158 -1.51552,-0.892427 l -0.02745,-0.02285 0.02745,0.0072 c 0.04631,0.01207 0.36592,0.1506 0.620485,0.268943 0.132882,0.06178 0.626125,0.301982 1.096094,0.533793 0.469969,0.23181 0.859738,0.421473 0.866152,0.421473 0.0064,0 0.340942,-0.174828 0.743395,-0.388508 1.404629,-0.745777 2.034693,-1.072102 2.070004,-1.072102 0.02358,0 0.04201,0.04777 0.03777,0.09783 -0.0027,0.03233 -0.01409,0.04743 -0.06917,0.09205 -0.358516,0.290438 -2.193166,1.356913 -2.594755,1.50832 -0.08123,0.03063 -0.07095,0.03025 -0.13977,0.0052 z"
       id="path675" /><path
       style="fill:#ffffff;stroke:#000000;stroke-width:0.00626754"
       d="m 60.919683,50.431601 c -0.165637,-0.04389 -0.280103,-0.101706 -1.070748,-0.540783 -0.762959,-0.423703 -1.254613,-0.721924 -1.205707,-0.731342 0.02353,-0.0045 0.219665,0.07284 0.453438,0.178875 0.235561,0.106846 0.772042,0.372073 1.39527,0.689796 l 0.483762,0.246624 0.658369,-0.35149 c 0.715989,-0.382253 1.46389,-0.76356 1.66192,-0.84731 0.137319,-0.05807 0.186809,-0.06175 0.223691,-0.01662 0.02467,0.03018 0.02426,0.05605 -0.0017,0.10663 -0.03247,0.06332 -0.05833,0.08132 -0.275619,0.191804 -0.255459,0.129896 -0.575393,0.311823 -1.087221,0.618236 -0.457249,0.273738 -0.732215,0.418205 -0.862838,0.453335 -0.112758,0.03033 -0.263263,0.03123 -0.37264,0.0023 z"
       id="path677" /><path
       style="fill:#ffffff;stroke:#000000;stroke-width:0.00626754"
       d="m 60.911776,49.915125 c -0.111726,-0.03784 -0.226669,-0.0941 -0.390648,-0.191217 -0.178699,-0.105834 -0.547496,-0.314937 -0.853397,-0.483863 -0.456543,-0.252116 -0.695513,-0.398128 -0.746777,-0.456282 l -0.02197,-0.02492 0.04353,0.008 c 0.139488,0.02557 0.494524,0.186598 1.338066,0.606875 0.367271,0.182985 0.673013,0.332701 0.679424,0.332701 0.0064,0 0.222347,-0.108258 0.479856,-0.240573 0.918916,-0.472164 1.280469,-0.647266 1.557826,-0.754462 0.06842,-0.02645 0.143812,-0.05119 0.167533,-0.05498 0.03958,-0.0063 0.04371,-0.0046 0.05015,0.02108 0.01662,0.06622 -0.03244,0.123614 -0.203175,0.237703 -0.419416,0.280259 -1.503679,0.869641 -1.847299,1.004154 -0.09327,0.03651 -0.134943,0.03582 -0.253129,-0.0042 z"
       id="path679" /><path
       style="fill:#ffffff;stroke:#000000;stroke-width:0.00626754"
       d="m 61.018521,49.408729 c -0.08716,-0.03557 -0.516765,-0.250149 -0.768742,-0.383968 -0.562419,-0.298688 -1.05763,-0.601453 -1.001449,-0.612273 0.06575,-0.01266 0.489405,0.172046 1.263954,0.551074 0.298012,0.145833 0.421235,0.20105 0.43379,0.194381 0.04969,-0.02639 1.094947,-0.53043 1.236542,-0.596279 0.484673,-0.2254 0.659353,-0.284208 0.712695,-0.239939 0.04663,0.0387 0.01308,0.07357 -0.216101,0.224544 -0.491488,0.323777 -1.431647,0.847343 -1.578324,0.878953 -0.01547,0.0033 -0.05142,-0.0039 -0.08237,-0.01649 z"
       id="path681" /><path
       style="fill:#ffffff;stroke:#000000;stroke-width:0.00626754"
       d="m 60.930664,48.845538 c -0.446756,-0.214291 -1.301497,-0.706548 -1.382776,-0.796361 -0.02052,-0.02267 -0.02049,-0.02302 0.002,-0.02302 0.06329,0 0.384121,0.13042 0.948125,0.385423 0.239187,0.108144 0.440885,0.196625 0.448218,0.196625 0.0073,0 0.199575,-0.08957 0.427205,-0.19905 0.489551,-0.235447 0.64707,-0.306127 0.851962,-0.382281 0.149111,-0.05542 0.305945,-0.09933 0.355362,-0.09948 0.09179,-3.22e-4 -0.08322,0.151464 -0.474973,0.411836 -0.481362,0.319932 -0.932393,0.567329 -1.029816,0.56487 -0.01345,-3.22e-4 -0.07882,-0.02669 -0.145261,-0.05856 z"
       id="path683" /><path
       style="fill:#ffffff;stroke:#000000;stroke-width:0.00626754"
       d="m 60.947137,48.272736 c -0.07367,-0.01896 -0.949102,-0.454561 -1.068723,-0.531785 -0.07645,-0.04935 -0.08545,-0.0587 -0.08237,-0.08553 0.0047,-0.04045 0.03411,-0.04342 0.133209,-0.01345 0.136062,0.04115 0.319899,0.117957 0.675752,0.282336 l 0.344249,0.159018 0.386056,-0.186865 c 0.562149,-0.2721 0.724796,-0.333358 0.891229,-0.335671 0.09426,-0.0013 0.099,-2.41e-4 0.102308,0.02303 0.0049,0.0346 -0.07771,0.119351 -0.193968,0.198947 -0.10727,0.07344 -0.550422,0.330516 -0.696105,0.403816 -0.2001,0.100679 -0.339937,0.125183 -0.491642,0.08615 z"
       id="path685" /><path
       style="fill:#ffffff;stroke:#000000;stroke-width:0.00626754"
       d="m 60.892227,47.724564 c -0.108486,-0.03094 -0.340801,-0.141262 -0.517621,-0.245819 -0.177937,-0.105218 -0.243572,-0.188784 -0.154982,-0.197323 0.05389,-0.0052 0.201059,0.03542 0.377363,0.10414 0.199698,0.07784 0.249857,0.0912 0.343075,0.09136 0.107512,1.61e-4 0.185125,-0.02333 0.39815,-0.120632 0.29862,-0.1364 0.459405,-0.192068 0.591818,-0.204904 0.05488,-0.0053 0.07025,-0.0028 0.09196,0.01478 0.02503,0.02032 0.02537,0.02252 0.0087,0.05478 -0.02196,0.04246 -0.108582,0.12066 -0.2032,0.183434 -0.177463,0.117738 -0.517641,0.285539 -0.646621,0.318961 -0.07885,0.02043 -0.219191,0.02103 -0.288639,0.0012 z"
       id="path687" /><path
       style="fill:#ffffff;stroke:#000000;stroke-width:0.00626754"
       d="m 61.007539,47.22229 c -0.149307,-0.05177 -0.489345,-0.243716 -0.527013,-0.297494 -0.05329,-0.07608 0.03437,-0.07643 0.252937,-10e-4 0.07258,0.02504 0.105982,0.03015 0.197201,0.03015 0.123964,0 0.211421,-0.02429 0.365422,-0.101487 0.181486,-0.09098 0.346243,-0.130677 0.418348,-0.10081 0.03906,0.01618 0.06338,0.06579 0.04713,0.09615 -0.03556,0.06646 -0.22351,0.202092 -0.408091,0.294513 -0.179178,0.08972 -0.262378,0.108953 -0.345934,0.07998 z"
       id="path689" /><path
       style="fill:#ffffff;stroke:#000000;stroke-width:0.00626754"
       d="m 60.921675,46.676083 c -0.04722,-0.01705 -0.100791,-0.04519 -0.119037,-0.06253 -0.09188,-0.08734 -0.08244,-0.177835 0.01721,-0.164921 0.19086,0.02473 0.214974,0.02121 0.305637,-0.04465 0.0634,-0.04606 0.116966,-0.06206 0.174973,-0.05226 0.05161,0.0087 0.118905,0.06321 0.118905,0.09629 0,0.02999 -0.09409,0.120449 -0.192185,0.184784 -0.130945,0.08588 -0.171602,0.09164 -0.305505,0.0433 z"
       id="path691" /><path
       style="fill:#ffffff;stroke:#000000;stroke-width:0.00626754"
       d="m 61.038821,46.153752 c -0.0696,-0.07264 -0.07772,-0.129371 -0.02056,-0.143717 0.03992,-0.01002 0.0917,0.01481 0.111756,0.05358 0.02577,0.04983 0.005,0.13952 -0.03236,0.13952 -0.0063,0 -0.03281,-0.02222 -0.05884,-0.04939 z"
       id="path693" /><path
       style="fill:#ffffff;stroke:#000000;stroke-width:0.00626754"
       d="m 61.153613,55.517755 c -0.02838,-0.02216 -0.164283,-0.09911 -0.302005,-0.171008 -1.204614,-0.628819 -4.856072,-2.702113 -4.820889,-2.737296 0.01925,-0.01925 1.101636,0.529637 2.472917,1.254046 0.554279,0.292811 1.587913,0.815133 1.921856,0.971163 0.288896,0.134985 0.525232,0.235742 0.62163,0.265022 0.09723,0.02953 0.10569,0.02736 0.346928,-0.08893 0.468708,-0.225957 2.317226,-1.226495 3.610947,-1.95448 0.308046,-0.173339 0.679219,-0.380211 0.82483,-0.459715 0.372182,-0.203215 0.410649,-0.216953 0.410649,-0.146657 0,0.0242 -0.01481,0.04571 -0.06315,0.09171 -0.12522,0.119162 -0.345468,0.254601 -1.38099,0.849225 -1.533159,0.880381 -2.775572,1.627284 -3.373289,2.027923 -0.115755,0.07759 -0.212122,0.140672 -0.21415,0.140184 -0.002,-4.83e-4 -0.0269,-0.01902 -0.05529,-0.04118 z"
       id="path695" /><path
       style="fill:#ffffff;stroke:#000000;stroke-width:0.0779737"
       d=""
       id="path697"
       transform="scale(0.26458333)" /><path
       style="fill:#ffffff;stroke:#000000;stroke-width:0.00626754"
       d="m 60.711024,56.392696 c -0.529487,-0.302656 -1.20884,-0.685279 -2.70707,-1.524668 -0.703673,-0.394236 -1.395542,-0.783559 -1.537484,-0.865163 -0.607321,-0.349151 -1.11197,-0.662284 -1.094884,-0.679371 0.01425,-0.01426 0.410081,0.172005 0.836806,0.393771 0.346218,0.179926 0.532381,0.279853 1.494561,0.802242 2.43445,1.321712 2.985809,1.609584 3.256558,1.700293 0.147606,0.04945 0.188259,0.04434 0.281119,-0.03538 0.210609,-0.180807 4.649574,-2.601365 5.39336,-2.940987 0.114707,-0.05238 0.12739,-0.05586 0.16195,-0.04445 0.04715,0.01556 0.07051,0.04833 0.07051,0.09892 0,0.04165 -0.03191,0.08748 -0.06091,0.08748 -0.05996,0 -1.137344,0.607068 -3.716907,2.094342 -1.579135,0.910466 -1.971333,1.134594 -1.983539,1.133526 -0.0053,-4.83e-4 -0.182666,-0.09972 -0.394071,-0.220556 z"
       id="path699" /><path
       style="fill:#ffffff;stroke:#000000;stroke-width:0.00626754"
       d="m 60.775213,56.94975 c -1.51007,-0.817744 -5.021714,-2.785419 -5.475984,-3.068352 -0.152712,-0.09511 -0.245222,-0.165234 -0.219131,-0.166096 0.06428,-0.0021 1.143112,0.554824 2.610868,1.34787 2.367022,1.278928 2.834228,1.523899 3.146351,1.649725 0.132914,0.05358 0.156783,0.0598 0.230623,0.06011 0.08042,3.22e-4 0.08405,-8.6e-4 0.153749,-0.05013 0.128892,-0.09113 0.374901,-0.228575 1.109185,-0.619684 0.667555,-0.355568 1.506028,-0.813353 2.564303,-1.400046 1.88159,-1.043125 2.211916,-1.216528 2.272884,-1.193133 0.01066,0.0041 0.01687,0.02042 0.01687,0.04433 0,0.04312 -0.01559,0.05759 -0.181204,0.168151 -0.595468,0.397535 -2.29055,1.398822 -3.426393,2.023973 -0.397849,0.218971 -0.744803,0.416635 -1.301369,0.74141 -0.677987,0.395627 -1.081539,0.625397 -1.13252,0.644822 -0.01131,0.0043 -0.146183,-0.0627 -0.368231,-0.182944 z"
       id="path701" /><path
       style="fill:#ffffff;stroke:#000000;stroke-width:0.00626754"
       d="m 60.825807,55.857882 c -0.847599,-0.428632 -3.018363,-1.631053 -4.370319,-2.420792 -0.433945,-0.253487 -0.72938,-0.435173 -0.721094,-0.443458 0.01324,-0.01324 0.344769,0.143072 1.028021,0.484708 0.869399,0.43471 1.393997,0.713831 1.642383,0.873855 0.204977,0.132058 0.376312,0.226558 0.774233,0.427028 0.54346,0.273792 1.092258,0.525531 1.522786,0.698515 0.31915,0.128233 0.452694,0.166409 0.481984,0.137783 0.0057,-0.0056 0.03761,-0.02085 0.07082,-0.03386 0.08103,-0.03176 0.324924,-0.162428 0.993891,-0.532504 2.051794,-1.135063 3.603459,-1.972089 3.969774,-2.141446 0.23907,-0.110528 0.322873,-0.129868 0.336007,-0.07754 0.0088,0.0351 0.0052,0.03991 -0.08115,0.108783 -0.197992,0.157878 -0.514362,0.351722 -1.31988,0.80871 -0.323146,0.183328 -0.940885,0.535719 -1.372753,0.783093 -1.555045,0.890729 -1.903304,1.085301 -2.346539,1.311013 -0.171479,0.08732 -0.300154,0.146359 -0.319007,0.146359 -0.01856,0 -0.137899,-0.05376 -0.289149,-0.130243 z"
       id="path703" /><path
       style="fill:#ffffff;stroke:#000000;stroke-width:0.00626754"
       d="m 61.073431,57.611327 c -0.148382,-0.05128 -0.726218,-0.335379 -1.125658,-0.553439 -0.202351,-0.110466 -3.358005,-1.883594 -3.887638,-2.184422 -0.774829,-0.440097 -1.36479,-0.796857 -1.347057,-0.814589 0.0097,-0.0097 0.21126,0.08334 0.539877,0.249361 0.539307,0.272463 1.669252,0.876422 4.52255,2.417318 l 1.216959,0.657207 0.474273,-0.253938 c 0.786101,-0.420896 1.591202,-0.861434 3.379021,-1.848943 1.405722,-0.776457 1.750063,-0.963027 2.105714,-1.140905 0.310617,-0.155355 0.46298,-0.212081 0.516481,-0.192289 0.04765,0.01763 0.02882,0.04833 -0.07162,0.116741 -0.567308,0.386409 -4.406394,2.598902 -5.815534,3.351535 -0.404806,0.21621 -0.426099,0.224451 -0.50737,0.196363 z"
       id="path705" /><path
       style="fill:#ffffff;stroke:#000000;stroke-width:0.00626754"
       d="m 60.985575,58.103684 c -0.449949,-0.218479 -1.562673,-0.815054 -2.174442,-1.165803 -0.370911,-0.212657 -0.630438,-0.355207 -1.219006,-0.669563 -1.578736,-0.843212 -3.191445,-1.765261 -3.153644,-1.803062 0.03241,-0.03241 0.874338,0.409865 3.708237,1.947957 0.86732,0.470736 1.354387,0.726993 2.236627,1.176746 0.345268,0.176011 0.633631,0.320021 0.640807,0.320021 0.0072,0 0.49068,-0.261317 1.074455,-0.580703 2.116629,-1.158022 2.405452,-1.311991 2.9533,-1.574377 0.03788,-0.01814 0.134248,-0.07585 0.21415,-0.128236 0.26615,-0.174501 0.554043,-0.340756 1.199549,-0.69273 0.445761,-0.243058 0.756612,-0.417555 0.975555,-0.547629 0.174385,-0.103601 0.273041,-0.125017 0.304564,-0.06612 0.01093,0.02042 0.005,0.0301 -0.05185,0.08521 -0.16291,0.157819 -0.666737,0.456352 -2.930487,1.73641 -1.344528,0.760276 -1.76507,0.999141 -2.503903,1.4222 -0.780778,0.447077 -1.076961,0.609682 -1.109767,0.609267 -0.01176,-1.61e-4 -0.08563,-0.03147 -0.164148,-0.06959 z"
       id="path707" /></g></svg>
