<?xml version="1.0" encoding="UTF-8" standalone="no"?>
<!-- Created with Inkscape (http://www.inkscape.org/) -->

<svg
   width="210mm"
   height="297mm"
   viewBox="0 0 210 297"
   version="1.1"
   id="svg5"
   xml:space="preserve"
   inkscape:export-filename="bitmap.png"
   inkscape:export-xdpi="300"
   inkscape:export-ydpi="300"
   sodipodi:docname="logo.svg"
   inkscape:version="1.2.1 (9c6d41e410, 2022-07-14)"
   xmlns:inkscape="http://www.inkscape.org/namespaces/inkscape"
   xmlns:sodipodi="http://sodipodi.sourceforge.net/DTD/sodipodi-0.dtd"
   xmlns="http://www.w3.org/2000/svg"
   xmlns:svg="http://www.w3.org/2000/svg"><sodipodi:namedview
     id="namedview7"
     pagecolor="#ffffff"
     bordercolor="#666666"
     borderopacity="1.0"
     inkscape:showpageshadow="2"
     inkscape:pageopacity="0.0"
     inkscape:pagecheckerboard="0"
     inkscape:deskcolor="#d1d1d1"
     inkscape:document-units="mm"
     showgrid="false"
     inkscape:zoom="8.3708979"
     inkscape:cx="256.12545"
     inkscape:cy="203.32347"
     inkscape:window-width="1366"
     inkscape:window-height="705"
     inkscape:window-x="-8"
     inkscape:window-y="-8"
     inkscape:window-maximized="1"
     inkscape:current-layer="layer1" /><defs
     id="defs2"><rect
       x="177.17377"
       y="192.3621"
       width="159.29423"
       height="47.336344"
       id="rect393" /></defs><g
     inkscape:label="Livello 1"
     inkscape:groupmode="layer"
     id="layer1"><text
       xml:space="preserve"
       transform="scale(0.26458333)"
       id="text391"
       style="font-style:normal;font-weight:normal;font-size:15px;line-height:25px;font-family:Sans;letter-spacing:0px;word-spacing:0px;white-space:pre;shape-inside:url(#rect393);display:inline;fill:#ffffff;fill-opacity:1;stroke:none;stroke-width:1px;stroke-linecap:butt;stroke-linejoin:miter;stroke-opacity:1" /><text
       xml:space="preserve"
       style="font-style:normal;font-weight:normal;font-size:3.96875px;line-height:6.61458px;font-family:Sans;letter-spacing:0px;word-spacing:0px;fill:#000000;fill-opacity:1;stroke:none;stroke-width:0.264583px;stroke-linecap:butt;stroke-linejoin:miter;stroke-opacity:1"
       x="59.205338"
       y="55.708794"
       id="text399"><tspan
         sodipodi:role="line"
         id="tspan397"
         style="stroke-width:0.264583px"
         x="59.205338"
         y="55.708794" /></text><path
       style="fill:#ffffff;stroke:#000000;stroke-width:0.00626754"
       d="m 60.893188,54.901867 c -0.127766,-0.04056 -0.382689,-0.253755 -0.895996,-0.552652 -0.332019,-0.193335 -0.559822,-0.32245 -1.109185,-0.628671 -1.242376,-0.692514 -2.009635,-1.130911 -2.399574,-1.37107 -0.123573,-0.07611 -0.231598,-0.163815 -0.21823,-0.177183 0.02211,-0.02211 0.361821,0.150042 1.717278,0.870283 1.215884,0.646077 1.429726,0.758343 1.877927,0.9859 0.633785,0.321781 1.012253,0.491836 1.194696,0.536806 0.08278,0.0204 0.09934,0.01773 0.165361,-0.02667 0.189962,-0.127769 1.601797,-0.904826 3.032755,-1.669193 0.826252,-0.441354 1.210598,-0.656597 1.323334,-0.7411 0.06714,-0.05033 0.175763,-0.07676 0.315128,-0.07669 0.06762,3.4e-5 0.12656,0.0037 0.130984,0.0081 0.01129,0.01129 -0.04438,0.06743 -0.122142,0.123173 -0.141756,0.101613 -0.658433,0.406635 -1.823017,1.076222 -0.895144,0.514672 -1.496284,0.877461 -2.201897,1.328852 -0.280468,0.179419 -0.428155,0.273667 -0.436721,0.287527 -0.02108,0.0341 -0.29742,0.106767 -0.360034,0.08689 z"
       id="path661"
       sodipodi:nodetypes="sssssssssssscssssss" /><path
       style="fill:#ffffff;stroke:#000000;stroke-width:0.00626754"
       d="m 60.496875,54.075499 c -0.323147,-0.181349 -1.13115,-0.633923 -1.795562,-1.005718 -1.660639,-0.929265 -1.96543,-1.103634 -2.07893,-1.189341 -0.05333,-0.04028 -0.07266,-0.07647 -0.04084,-0.07647 0.02881,0 0.408649,0.183587 0.845852,0.408828 0.559781,0.28839 1.000106,0.521408 2.362432,1.250189 1.04364,0.558299 1.17689,0.62675 1.201816,0.617372 0.07648,-0.02877 3.275981,-1.750778 3.920005,-2.109785 0.37608,-0.209643 0.556626,-0.287407 0.667283,-0.287407 0.228363,0 -0.377158,0.38676 -2.539719,1.622175 -1.016741,0.580838 -1.937043,1.101368 -1.945916,1.100626 -0.0049,-4.02e-4 -0.273277,-0.14912 -0.596423,-0.330471 z"
       id="path663" /><path
       style="fill:#ffffff;stroke:#000000;stroke-width:0.00626754"
       d="m 60.776351,53.644962 c -0.514157,-0.258611 -0.987495,-0.51695 -2.442936,-1.333302 -1.113951,-0.624813 -1.55017,-0.872052 -1.545989,-0.876233 0.0019,-0.0019 0.05383,0.01065 0.115455,0.02782 0.150329,0.0419 0.286106,0.103894 0.842995,0.384889 0.470577,0.237443 0.678703,0.346171 1.449628,0.757312 0.812953,0.433555 1.51933,0.795866 1.688525,0.866072 l 0.08515,0.03533 0.07409,-0.02938 c 0.190832,-0.07568 0.595348,-0.287742 1.721395,-0.902399 2.002545,-1.093097 2.532251,-1.354787 2.581389,-1.275281 0.02505,0.04053 -0.334865,0.302697 -0.810068,0.590062 -0.171997,0.10401 -1.79388,1.042669 -2.512608,1.454164 -0.354831,0.203152 -0.828587,0.445207 -0.89011,0.454782 -0.03414,0.0053 -0.0786,-0.01385 -0.356916,-0.153836 z"
       id="path665" /><path
       style="fill:#ffffff;stroke:#000000;stroke-width:0.00626754"
       d="m 60.833716,53.150916 c -1.074202,-0.5499 -3.739043,-2.076872 -3.667678,-2.101605 0.03284,-0.01138 0.742916,0.333655 1.45291,0.705991 0.809721,0.424634 1.945078,0.987441 2.207303,1.09418 0.265319,0.107998 0.276462,0.106229 0.620216,-0.09848 0.09645,-0.05743 0.331189,-0.18586 0.521647,-0.285393 0.668152,-0.349173 1.044139,-0.547403 1.730022,-0.912112 0.987262,-0.524964 1.220051,-0.641478 1.293876,-0.6476 0.119639,-0.0099 0.138153,0.03698 0.04868,0.123317 -0.07096,0.06847 -0.172786,0.135964 -0.368593,0.244322 -0.445749,0.246673 -1.049101,0.591678 -1.797612,1.027901 -1.030433,0.600523 -1.711315,0.973691 -1.7772,0.974022 -0.01104,5.5e-5 -0.129646,-0.05599 -0.263568,-0.124547 z"
       id="path667" /><path
       style="fill:#ffffff;stroke:#000000;stroke-width:0.00626754"
       d="m 61.062449,52.737955 c -0.01812,-0.0108 -0.304752,-0.169327 -0.636957,-0.352285 -1.382884,-0.761605 -1.990295,-1.10327 -2.464173,-1.386083 -0.312396,-0.186439 -0.490625,-0.3048 -0.458972,-0.3048 0.01346,0 0.235354,0.09719 0.421825,0.184763 0.341994,0.160607 1.231566,0.613391 2.189646,1.114511 0.492992,0.257858 0.901713,0.468832 0.908268,0.468832 0.0066,0 0.186343,-0.100397 0.399529,-0.223105 0.579955,-0.333817 1.175372,-0.658719 2.095317,-1.14336 0.541573,-0.285308 1.193154,-0.6103 1.223598,-0.6103 0.06205,0 0.07633,0.02693 0.04569,0.08619 -0.02592,0.05011 -0.171323,0.180055 -0.287162,0.256618 -0.09558,0.06318 -1.407556,0.813707 -2.78318,1.592157 -0.579256,0.327794 -0.598635,0.338503 -0.610558,0.337411 -0.0055,-4.83e-4 -0.02475,-0.0097 -0.04287,-0.02054 z"
       id="path669" /><path
       style="fill:#ffffff;stroke:#000000;stroke-width:0.00626754"
       d="m 60.947137,52.087259 c -0.131433,-0.05504 -0.768011,-0.37715 -1.110002,-0.561669 -0.763019,-0.411681 -1.555861,-0.868011 -1.911328,-1.100088 -0.203054,-0.132569 -0.202813,-0.146465 0.0011,-0.06071 0.342514,0.14407 0.864792,0.405418 2.192605,1.097183 l 0.847088,0.441316 0.866257,-0.460012 c 1.216503,-0.646006 1.414595,-0.749683 1.793942,-0.938912 0.390497,-0.194791 0.574514,-0.275441 0.699525,-0.306588 0.08477,-0.02112 0.09166,-0.02135 0.118057,-0.0041 0.0466,0.03053 0.03556,0.05607 -0.05235,0.121078 -0.433623,0.320679 -2.702245,1.575345 -3.216101,1.778671 -0.09359,0.03703 -0.127713,0.0361 -0.22875,-0.0062 z"
       id="path671" /><path
       style="fill:#ffffff;stroke:#000000;stroke-width:0.00626754"
       d="m 60.991066,51.57036 c -0.155477,-0.07055 -0.779179,-0.390036 -1.098203,-0.562547 -1.030223,-0.55709 -1.783278,-1.00096 -1.72007,-1.013854 0.05228,-0.01066 0.426283,0.164209 1.692615,0.791417 0.597972,0.296173 1.092741,0.53862 1.099486,0.538772 0.0067,1.61e-4 0.365036,-0.180409 0.796197,-0.401244 1.15779,-0.593006 1.620795,-0.838206 1.917156,-1.015296 0.0857,-0.05121 0.191192,-0.105077 0.23442,-0.119703 0.170283,-0.05761 0.290264,-0.01502 0.217672,0.07726 -0.07837,0.09963 -1.307731,0.842858 -2.288166,1.38334 -0.275691,0.15198 -0.675681,0.354016 -0.719323,0.363331 -0.01838,0.0039 -0.06193,-0.0098 -0.131784,-0.04148 z"
       id="path673" /><path
       style="fill:#ffffff;stroke:#000000;stroke-width:0.00626754"
       d="m 61.040485,51.047381 c -0.148719,-0.05417 -0.670909,-0.315984 -1.114676,-0.558863 -0.63941,-0.349958 -1.406356,-0.80158 -1.51552,-0.892427 l -0.02745,-0.02285 0.02745,0.0072 c 0.04631,0.01207 0.36592,0.1506 0.620485,0.268943 0.132882,0.06178 0.626125,0.301982 1.096094,0.533793 0.469969,0.23181 0.859738,0.421473 0.866152,0.421473 0.0064,0 0.340942,-0.174828 0.743395,-0.388508 1.404629,-0.745777 2.034693,-1.072102 2.070004,-1.072102 0.02358,0 0.04201,0.04777 0.03777,0.09783 -0.0027,0.03233 -0.01409,0.04743 -0.06917,0.09205 -0.358516,0.290438 -2.193166,1.356913 -2.594755,1.50832 -0.08123,0.03063 -0.07095,0.03025 -0.13977,0.0052 z"
       id="path675" /><path
       style="fill:#ffffff;stroke:#000000;stroke-width:0.00626754"
       d="m 60.919683,50.431601 c -0.165637,-0.04389 -0.280103,-0.101706 -1.070748,-0.540783 -0.762959,-0.423703 -1.254613,-0.721924 -1.205707,-0.731342 0.02353,-0.0045 0.219665,0.07284 0.453438,0.178875 0.235561,0.106846 0.772042,0.372073 1.39527,0.689796 l 0.483762,0.246624 0.658369,-0.35149 c 0.715989,-0.382253 1.46389,-0.76356 1.66192,-0.84731 0.137319,-0.05807 0.186809,-0.06175 0.223691,-0.01662 0.02467,0.03018 0.02426,0.05605 -0.0017,0.10663 -0.03247,0.06332 -0.05833,0.08132 -0.275619,0.191804 -0.255459,0.129896 -0.575393,0.311823 -1.087221,0.618236 -0.457249,0.273738 -0.732215,0.418205 -0.862838,0.453335 -0.112758,0.03033 -0.263263,0.03123 -0.37264,0.0023 z"
       id="path677" /><path
       style="fill:#ffffff;stroke:#000000;stroke-width:0.00626754"
       d="m 60.911776,49.915125 c -0.111726,-0.03784 -0.226669,-0.0941 -0.390648,-0.191217 -0.178699,-0.105834 -0.547496,-0.314937 -0.853397,-0.483863 -0.456543,-0.252116 -0.695513,-0.398128 -0.746777,-0.456282 l -0.02197,-0.02492 0.04353,0.008 c 0.139488,0.02557 0.494524,0.186598 1.338066,0.606875 0.367271,0.182985 0.673013,0.332701 0.679424,0.332701 0.0064,0 0.222347,-0.108258 0.479856,-0.240573 0.918916,-0.472164 1.280469,-0.647266 1.557826,-0.754462 0.06842,-0.02645 0.143812,-0.05119 0.167533,-0.05498 0.03958,-0.0063 0.04371,-0.0046 0.05015,0.02108 0.01662,0.06622 -0.03244,0.123614 -0.203175,0.237703 -0.419416,0.280259 -1.503679,0.869641 -1.847299,1.004154 -0.09327,0.03651 -0.134943,0.03582 -0.253129,-0.0042 z"
       id="path679" /><path
       style="fill:#ffffff;stroke:#000000;stroke-width:0.00626754"
       d="m 61.018521,49.408729 c -0.08716,-0.03557 -0.516765,-0.250149 -0.768742,-0.383968 -0.562419,-0.298688 -1.05763,-0.601453 -1.001449,-0.612273 0.06575,-0.01266 0.489405,0.172046 1.263954,0.551074 0.298012,0.145833 0.421235,0.20105 0.43379,0.194381 0.04969,-0.02639 1.094947,-0.53043 1.236542,-0.596279 0.484673,-0.2254 0.659353,-0.284208 0.712695,-0.239939 0.04663,0.0387 0.01308,0.07357 -0.216101,0.224544 -0.491488,0.323777 -1.431647,0.847343 -1.578324,0.878953 -0.01547,0.0033 -0.05142,-0.0039 -0.08237,-0.01649 z"
       id="path681" /><path
       style="fill:#ffffff;stroke:#000000;stroke-width:0.00626754"
       d="m 60.930664,48.845538 c -0.446756,-0.214291 -1.301497,-0.706548 -1.382776,-0.796361 -0.02052,-0.02267 -0.02049,-0.02302 0.002,-0.02302 0.06329,0 0.384121,0.13042 0.948125,0.385423 0.239187,0.108144 0.440885,0.196625 0.448218,0.196625 0.0073,0 0.199575,-0.08957 0.427205,-0.19905 0.489551,-0.235447 0.64707,-0.306127 0.851962,-0.382281 0.149111,-0.05542 0.305945,-0.09933 0.355362,-0.09948 0.09179,-3.22e-4 -0.08322,0.151464 -0.474973,0.411836 -0.481362,0.319932 -0.932393,0.567329 -1.029816,0.56487 -0.01345,-3.22e-4 -0.07882,-0.02669 -0.145261,-0.05856 z"
       id="path683" /><path
       style="fill:#ffffff;stroke:#000000;stroke-width:0.00626754"
       d="m 60.947137,48.272736 c -0.07367,-0.01896 -0.949102,-0.454561 -1.068723,-0.531785 -0.07645,-0.04935 -0.08545,-0.0587 -0.08237,-0.08553 0.0047,-0.04045 0.03411,-0.04342 0.133209,-0.01345 0.136062,0.04115 0.319899,0.117957 0.675752,0.282336 l 0.344249,0.159018 0.386056,-0.186865 c 0.562149,-0.2721 0.724796,-0.333358 0.891229,-0.335671 0.09426,-0.0013 0.099,-2.41e-4 0.102308,0.02303 0.0049,0.0346 -0.07771,0.119351 -0.193968,0.198947 -0.10727,0.07344 -0.550422,0.330516 -0.696105,0.403816 -0.2001,0.100679 -0.339937,0.125183 -0.491642,0.08615 z"
       id="path685" /><path
       style="fill:#ffffff;stroke:#000000;stroke-width:0.00626754"
       d="m 60.892227,47.724564 c -0.108486,-0.03094 -0.340801,-0.141262 -0.517621,-0.245819 -0.177937,-0.105218 -0.243572,-0.188784 -0.154982,-0.197323 0.05389,-0.0052 0.201059,0.03542 0.377363,0.10414 0.199698,0.07784 0.249857,0.0912 0.343075,0.09136 0.107512,1.61e-4 0.185125,-0.02333 0.39815,-0.120632 0.29862,-0.1364 0.459405,-0.192068 0.591818,-0.204904 0.05488,-0.0053 0.07025,-0.0028 0.09196,0.01478 0.02503,0.02032 0.02537,0.02252 0.0087,0.05478 -0.02196,0.04246 -0.108582,0.12066 -0.2032,0.183434 -0.177463,0.117738 -0.517641,0.285539 -0.646621,0.318961 -0.07885,0.02043 -0.219191,0.02103 -0.288639,0.0012 z"
       id="path687" /><path
       style="fill:#ffffff;stroke:#000000;stroke-width:0.00626754"
       d="m 61.007539,47.22229 c -0.149307,-0.05177 -0.489345,-0.243716 -0.527013,-0.297494 -0.05329,-0.07608 0.03437,-0.07643 0.252937,-10e-4 0.07258,0.02504 0.105982,0.03015 0.197201,0.03015 0.123964,0 0.211421,-0.02429 0.365422,-0.101487 0.181486,-0.09098 0.346243,-0.130677 0.418348,-0.10081 0.03906,0.01618 0.06338,0.06579 0.04713,0.09615 -0.03556,0.06646 -0.22351,0.202092 -0.408091,0.294513 -0.179178,0.08972 -0.262378,0.108953 -0.345934,0.07998 z"
       id="path689" /><path
       style="fill:#ffffff;stroke:#000000;stroke-width:0.00626754"
       d="m 60.921675,46.676083 c -0.04722,-0.01705 -0.100791,-0.04519 -0.119037,-0.06253 -0.09188,-0.08734 -0.08244,-0.177835 0.01721,-0.164921 0.19086,0.02473 0.214974,0.02121 0.305637,-0.04465 0.0634,-0.04606 0.116966,-0.06206 0.174973,-0.05226 0.05161,0.0087 0.118905,0.06321 0.118905,0.09629 0,0.02999 -0.09409,0.120449 -0.192185,0.184784 -0.130945,0.08588 -0.171602,0.09164 -0.305505,0.0433 z"
       id="path691" /><path
       style="fill:#ffffff;stroke:#000000;stroke-width:0.00626754"
       d="m 61.038821,46.153752 c -0.0696,-0.07264 -0.07772,-0.129371 -0.02056,-0.143717 0.03992,-0.01002 0.0917,0.01481 0.111756,0.05358 0.02577,0.04983 0.005,0.13952 -0.03236,0.13952 -0.0063,0 -0.03281,-0.02222 -0.05884,-0.04939 z"
       id="path693" /><path
       style="fill:#ffffff;stroke:#000000;stroke-width:0.00626754"
       d="m 61.153613,55.517755 c -0.03218,-0.01615 -0.164283,-0.09911 -0.302005,-0.171008 -1.204614,-0.628819 -4.856072,-2.702113 -4.820889,-2.737296 0.01925,-0.01925 1.101636,0.529637 2.472917,1.254046 0.554279,0.292811 1.566728,0.85145 1.900671,1.00748 0.288896,0.134985 0.570628,0.317455 0.667026,0.346735 0.09723,0.02953 0.114769,0.04855 0.346928,-0.08893 0.447721,-0.265122 2.293015,-1.344525 3.586736,-2.07251 0.308046,-0.173339 0.679219,-0.380211 0.82483,-0.459715 0.372182,-0.203215 0.410649,-0.216953 0.410649,-0.146657 0,0.0242 -0.01481,0.04571 -0.06315,0.09171 -0.12522,0.119162 -0.345468,0.254601 -1.38099,0.849225 -1.533159,0.880381 -2.630305,1.515307 -3.228022,1.915946 -0.115755,0.07759 -0.308967,0.210279 -0.310995,0.209791 -0.002,-4.83e-4 -0.06547,0.02037 -0.09766,0.0042 z"
       id="path695"
       sodipodi:nodetypes="scssssssssssssss" /><path
       style="fill:#ffffff;stroke:#000000;stroke-width:0.0779737"
       d=""
       id="path697"
       transform="scale(0.26458333)" /><path
       style="fill:#ffffff;stroke:#000000;stroke-width:0.00626754"
       d="m 60.711024,56.392696 c -0.529487,-0.302656 -1.20884,-0.685279 -2.70707,-1.524668 -0.703673,-0.394236 -1.395542,-0.783559 -1.537484,-0.865163 -0.607321,-0.349151 -1.11197,-0.662284 -1.094884,-0.679371 0.01425,-0.01426 0.410081,0.172005 0.836806,0.393771 0.346218,0.179926 0.532381,0.279853 1.494561,0.802242 2.43445,1.321712 2.985809,1.609584 3.256558,1.700293 0.147606,0.04945 0.188259,0.04434 0.281119,-0.03538 0.210609,-0.180807 4.649574,-2.601365 5.39336,-2.940987 0.114707,-0.05238 0.12739,-0.05586 0.16195,-0.04445 0.04715,0.01556 0.07051,0.04833 0.07051,0.09892 0,0.04165 -0.03191,0.08748 -0.06091,0.08748 -0.05996,0 -1.137344,0.607068 -3.716907,2.094342 -1.579135,0.910466 -1.971333,1.134594 -1.983539,1.133526 -0.0053,-4.83e-4 -0.182666,-0.09972 -0.394071,-0.220556 z"
       id="path699" /><path
       style="fill:#ffffff;stroke:#000000;stroke-width:0.00626754"
       d="m 60.775213,56.94975 c -1.51007,-0.817744 -5.021714,-2.785419 -5.475984,-3.068352 -0.152712,-0.09511 -0.245222,-0.165234 -0.219131,-0.166096 0.06428,-0.0021 1.143112,0.554824 2.610868,1.34787 2.367022,1.278928 2.834228,1.523899 3.146351,1.649725 0.132914,0.05358 0.156783,0.0598 0.230623,0.06011 0.08042,3.22e-4 0.08405,-8.6e-4 0.153749,-0.05013 0.128892,-0.09113 0.374901,-0.228575 1.109185,-0.619684 0.667555,-0.355568 1.506028,-0.813353 2.564303,-1.400046 1.88159,-1.043125 2.211916,-1.216528 2.272884,-1.193133 0.01066,0.0041 0.01687,0.02042 0.01687,0.04433 0,0.04312 -0.01559,0.05759 -0.181204,0.168151 -0.595468,0.397535 -2.29055,1.398822 -3.426393,2.023973 -0.397849,0.218971 -0.744803,0.416635 -1.301369,0.74141 -0.677987,0.395627 -1.081539,0.625397 -1.13252,0.644822 -0.01131,0.0043 -0.146183,-0.0627 -0.368231,-0.182944 z"
       id="path701" /><path
       style="fill:#ffffff;stroke:#000000;stroke-width:0.00626754"
       d="m 60.825807,55.857882 c -0.847599,-0.428632 -3.018363,-1.631053 -4.370319,-2.420792 -0.433945,-0.253487 -0.72938,-0.435173 -0.721094,-0.443458 0.01324,-0.01324 0.344769,0.143072 1.028021,0.484708 0.869399,0.43471 1.393997,0.713831 1.642383,0.873855 0.204977,0.132058 0.376312,0.226558 0.774233,0.427028 0.54346,0.273792 1.013572,0.567901 1.4441,0.740885 0.31915,0.128233 0.07137,0.04233 0.421455,0.225548 0.114651,0.02769 0.334198,-0.0844 0.367408,-0.09741 0.08103,-0.03176 0.330977,-0.216903 0.999944,-0.586979 2.051794,-1.135063 3.440033,-1.984195 3.806348,-2.153552 0.23907,-0.110528 0.322873,-0.129868 0.336007,-0.07754 0.0088,0.0351 0.0052,0.03991 -0.08115,0.108783 -0.197992,0.157878 -0.514362,0.351722 -1.31988,0.80871 -0.323146,0.183328 -0.940885,0.535719 -1.372753,0.783093 -1.555045,0.890729 -1.903304,1.085301 -2.346539,1.311013 -0.171479,0.08732 -0.300154,0.146359 -0.319007,0.146359 -0.01856,0 -0.137899,-0.05376 -0.289149,-0.130243 z"
       id="path703"
       sodipodi:nodetypes="ssssssscsssscssssss" /><path
       style="fill:#ffffff;stroke:#000000;stroke-width:0.00626754"
       d="m 61.073431,57.611327 c -0.148382,-0.05128 -0.726218,-0.335379 -1.125658,-0.553439 -0.202351,-0.110466 -3.358005,-1.883594 -3.887638,-2.184422 -0.774829,-0.440097 -1.36479,-0.796857 -1.347057,-0.814589 0.0097,-0.0097 0.21126,0.08334 0.539877,0.249361 0.539307,0.272463 1.669252,0.876422 4.52255,2.417318 l 1.216959,0.657207 0.474273,-0.253938 c 0.786101,-0.420896 1.591202,-0.861434 3.379021,-1.848943 1.405722,-0.776457 1.750063,-0.963027 2.105714,-1.140905 0.310617,-0.155355 0.46298,-0.212081 0.516481,-0.192289 0.04765,0.01763 0.02882,0.04833 -0.07162,0.116741 -0.567308,0.386409 -4.406394,2.598902 -5.815534,3.351535 -0.404806,0.21621 -0.426099,0.224451 -0.50737,0.196363 z"
       id="path705" /><path
       style="fill:#ffffff;stroke:#000000;stroke-width:0.00626754"
       d="m 60.985575,58.103684 c -0.449949,-0.218479 -1.562673,-0.815054 -2.174442,-1.165803 -0.370911,-0.212657 -0.630438,-0.355207 -1.219006,-0.669563 -1.578736,-0.843212 -3.191445,-1.765261 -3.153644,-1.803062 0.03241,-0.03241 0.874338,0.409865 3.708237,1.947957 0.86732,0.470736 1.354387,0.726993 2.236627,1.176746 0.345268,0.176011 0.633631,0.320021 0.640807,0.320021 0.0072,0 0.49068,-0.261317 1.074455,-0.580703 2.116629,-1.158022 2.405452,-1.311991 2.9533,-1.574377 0.03788,-0.01814 0.134248,-0.07585 0.21415,-0.128236 0.26615,-0.174501 0.554043,-0.340756 1.199549,-0.69273 0.445761,-0.243058 0.756612,-0.417555 0.975555,-0.547629 0.174385,-0.103601 0.273041,-0.125017 0.304564,-0.06612 0.01093,0.02042 0.005,0.0301 -0.05185,0.08521 -0.16291,0.157819 -0.666737,0.456352 -2.930487,1.73641 -1.344528,0.760276 -1.76507,0.999141 -2.503903,1.4222 -0.780778,0.447077 -1.076961,0.609682 -1.109767,0.609267 -0.01176,-1.61e-4 -0.08563,-0.03147 -0.164148,-0.06959 z"
       id="path707" /></g></svg>
